<?xml version="1.0" encoding="UTF-8" standalone="no"?>
<!-- Created with Inkscape (http://www.inkscape.org/) -->

<svg
   xmlns:dc="http://purl.org/dc/elements/1.1/"
   xmlns:cc="http://creativecommons.org/ns#"
   xmlns:rdf="http://www.w3.org/1999/02/22-rdf-syntax-ns#"
   xmlns:svg="http://www.w3.org/2000/svg"
   xmlns="http://www.w3.org/2000/svg"
   xmlns:xlink="http://www.w3.org/1999/xlink"
   xmlns:sodipodi="http://sodipodi.sourceforge.net/DTD/sodipodi-0.dtd"
   xmlns:inkscape="http://www.inkscape.org/namespaces/inkscape"
   version="1.0"
   width="149.63745"
   height="643.74023"
   id="svg2"
   inkscape:version="0.91 r13725"
   sodipodi:docname="problegend.svg">
  <metadata
     id="metadata49">
    <rdf:RDF>
      <cc:Work
         rdf:about="">
        <dc:format>image/svg+xml</dc:format>
        <dc:type
           rdf:resource="http://purl.org/dc/dcmitype/StillImage" />
        <dc:title></dc:title>
      </cc:Work>
    </rdf:RDF>
  </metadata>
  <sodipodi:namedview
     pagecolor="#ffffff"
     bordercolor="#666666"
     borderopacity="1"
     objecttolerance="10"
     gridtolerance="10"
     guidetolerance="10"
     inkscape:pageopacity="0"
     inkscape:pageshadow="2"
     inkscape:window-width="1920"
     inkscape:window-height="1174"
     id="namedview47"
     showgrid="false"
     inkscape:zoom="0.78884618"
     inkscape:cx="30.430177"
     inkscape:cy="203.58006"
     inkscape:window-x="1920"
     inkscape:window-y="0"
     inkscape:window-maximized="1"
     inkscape:current-layer="svg2"
     fit-margin-top="0"
     fit-margin-left="0"
     fit-margin-right="0"
     fit-margin-bottom="0" />
  <defs
     id="defs4">
    <linearGradient
       id="linearGradient4644">
      <stop
         style="stop-color:purple;stop-opacity:1"
         offset="0"
         id="stop4646" />
      <stop
         style="stop-color:fuchsia;stop-opacity:1"
         offset="1"
         id="stop4648" />
    </linearGradient>
    <linearGradient
       id="linearGradient4636">
      <stop
         style="stop-color:navy;stop-opacity:1"
         offset="0"
         id="stop4638" />
      <stop
         style="stop-color:blue;stop-opacity:1"
         offset="1"
         id="stop4640" />
    </linearGradient>
    <linearGradient
       id="linearGradient4628">
      <stop
         style="stop-color:teal;stop-opacity:1"
         offset="0"
         id="stop4630" />
      <stop
         style="stop-color:#00c0c0;stop-opacity:1"
         offset="1"
         id="stop4632" />
    </linearGradient>
    <linearGradient
       id="linearGradient4620">
      <stop
         style="stop-color:green;stop-opacity:1"
         offset="0"
         id="stop4622" />
      <stop
         style="stop-color:#00c000;stop-opacity:1"
         offset="1"
         id="stop4624" />
    </linearGradient>
    <linearGradient
       id="linearGradient4612">
      <stop
         style="stop-color:olive;stop-opacity:1"
         offset="0"
         id="stop4614" />
      <stop
         style="stop-color:#c0c000;stop-opacity:1"
         offset="1"
         id="stop4616" />
    </linearGradient>
    <linearGradient
       id="linearGradient4594">
      <stop
         style="stop-color:maroon;stop-opacity:1"
         offset="0"
         id="stop4596" />
      <stop
         style="stop-color:red;stop-opacity:1"
         offset="1"
         id="stop4598" />
    </linearGradient>
    <linearGradient
       id="linearGradient2760">
      <stop
         style="stop-color:red;stop-opacity:1"
         offset="0"
         id="stop2762" />
      <stop
         style="stop-color:yellow;stop-opacity:1"
         offset="0.18512578"
         id="stop2772" />
      <stop
         style="stop-color:lime;stop-opacity:1"
         offset="0.34256288"
         id="stop2770" />
      <stop
         style="stop-color:aqua;stop-opacity:1"
         offset="0.5"
         id="stop2768" />
      <stop
         style="stop-color:blue;stop-opacity:1"
         offset="0.65429997"
         id="stop2774" />
      <stop
         style="stop-color:fuchsia;stop-opacity:1"
         offset="0.8119877"
         id="stop2776" />
      <stop
         style="stop-color:red;stop-opacity:1"
         offset="1"
         id="stop2764" />
    </linearGradient>
    <linearGradient
       x1="82.35714"
       y1="245.21933"
       x2="637.64282"
       y2="245.21933"
       id="linearGradient2766"
       xlink:href="#linearGradient2760"
       gradientUnits="userSpaceOnUse"
       gradientTransform="matrix(1.260813,0,0,1.047728,-82.0455,689.0106)" />
    <linearGradient
       x1="42.677505"
       y1="1002.8537"
       x2="42.677505"
       y2="1030.9336"
       id="linearGradient4600"
       xlink:href="#linearGradient4594"
       gradientUnits="userSpaceOnUse"
       gradientTransform="translate(-1.010153,0)" />
    <linearGradient
       x1="153.17801"
       y1="1002.8537"
       x2="153.17801"
       y2="1030.9336"
       id="linearGradient4618"
       xlink:href="#linearGradient4612"
       gradientUnits="userSpaceOnUse"
       gradientTransform="translate(-1.010153,0)" />
    <linearGradient
       x1="263.57779"
       y1="1002.8537"
       x2="263.57779"
       y2="1030.9336"
       id="linearGradient4626"
       xlink:href="#linearGradient4620"
       gradientUnits="userSpaceOnUse"
       gradientTransform="translate(-1.010153,0)" />
    <linearGradient
       x1="373.57779"
       y1="1002.8537"
       x2="373.57779"
       y2="1030.9336"
       id="linearGradient4634"
       xlink:href="#linearGradient4628"
       gradientUnits="userSpaceOnUse"
       gradientTransform="translate(-1.010153,0)" />
    <linearGradient
       x1="483.41788"
       y1="1002.8537"
       x2="483.41788"
       y2="1030.9336"
       id="linearGradient4642"
       xlink:href="#linearGradient4636"
       gradientUnits="userSpaceOnUse"
       gradientTransform="translate(-1.010153,0)" />
    <linearGradient
       x1="592.89807"
       y1="1002.8537"
       x2="592.89807"
       y2="1030.9336"
       id="linearGradient4650"
       xlink:href="#linearGradient4644"
       gradientUnits="userSpaceOnUse"
       gradientTransform="translate(-1.010153,0)" />
    <linearGradient
       x1="702.89807"
       y1="1002.8537"
       x2="702.89807"
       y2="1030.9336"
       id="linearGradient4658"
       xlink:href="#linearGradient4594"
       gradientUnits="userSpaceOnUse"
       gradientTransform="translate(-1.010153,0)" />
    <clipPath
       clipPathUnits="userSpaceOnUse"
       id="clipPath4182">
      <rect
         style="opacity:1;fill:#ff76bb;fill-opacity:1;stroke:none;stroke-width:1.29999995;stroke-miterlimit:4;stroke-dasharray:none;stroke-opacity:1"
         id="rect4184"
         width="70.989761"
         height="575.52411"
         x="910.22186"
         y="-597.37598"
         transform="matrix(0,1,-1,0,0,0)" />
    </clipPath>
  </defs>
  <g
     transform="matrix(0,-1.0435612,0.71732528,0,-653.8479,643.13859)"
     id="layer1"
     clip-path="url(#clipPath4182)">
    <rect
       width="698.85065"
       height="68.850655"
       x="22.421661"
       y="911.50824"
       style="fill:url(#linearGradient2766);fill-opacity:1;fill-rule:nonzero;stroke:none;stroke-width:1.14934266;stroke-opacity:1"
       id="rect1872" />
    <path
       d="m 51.147945,1016.8931 c -2.1e-5,4.6134 -0.826843,8.1069 -2.480469,10.4803 -1.653662,2.3735 -3.98683,3.5602 -6.999512,3.5602 -3.040372,0 -5.380661,-1.1867 -7.020874,-3.5602 -1.64022,-2.3734 -2.460328,-5.8669 -2.460327,-10.4803 -10e-7,-4.7193 0.846759,-8.2322 2.540283,-10.539 1.693517,-2.3067 4.007154,-3.4735 6.940918,-3.5004 2.906074,10e-5 5.21259,1.1601 6.919556,3.4803 1.70693,2.3201 2.560404,5.8398 2.560425,10.5591 l 0,0 z m -9.479981,9.7204 c 1.466459,0 2.566312,-0.7332 3.299561,-2.1997 0.73322,-1.4665 1.099838,-3.9734 1.099853,-7.5207 -1.5e-5,-3.5197 -0.366633,-6.0195 -1.099853,-7.4994 -0.733249,-1.4799 -1.833102,-2.2199 -3.299561,-2.2199 -1.49415,0 -2.601123,0.74 -3.320923,2.2199 -0.719815,1.4799 -1.079718,3.9797 -1.079711,7.4994 -7e-6,3.5473 0.359896,6.0542 1.079711,7.5207 0.7198,1.4665 1.826773,2.1997 3.320923,2.1997 l 0,0 z"
       style="font-style:normal;font-weight:normal;font-size:12px;font-family:'Bitstream Vera Sans';fill:url(#linearGradient4600);fill-opacity:1;stroke:none;stroke-width:1px;stroke-linecap:butt;stroke-linejoin:miter;stroke-opacity:1"
       id="text2778"
       inkscape:connector-curvature="0" />
    <path
       d="m 674.8821,1017.6133 0,-2.6795 c -1e-5,-0.2669 0.0468,-0.4736 0.14038,-0.6201 0.0936,-0.1465 0.31371,-0.2197 0.6604,-0.2197 l 1.31958,0 c 1.41356,0 2.49368,-0.3068 3.24035,-0.9204 0.74665,-0.6136 1.11999,-1.5601 1.12,-2.8394 -0.0269,-0.9334 -0.33367,-1.7134 -0.92041,-2.3401 -0.58676,-0.6266 -1.36028,-0.9399 -2.32056,-0.9399 -0.5599,0 -1.13323,0.1465 -1.71997,0.4394 -0.58676,0.293 -1.13323,0.7064 -1.6394,1.2403 -0.42644,0.4533 -0.67302,0.6932 -0.73975,0.7196 -0.0667,0.026 -0.11353,0.04 -0.14038,0.04 -0.0537,0 -0.0938,-0.01 -0.12024,-0.02 -0.0265,-0.013 -0.093,-0.073 -0.19958,-0.1794 l -2.19971,-1.9605 c -0.0806,-0.054 -0.13408,-0.1137 -0.16052,-0.18 -0.0265,-0.066 -0.0397,-0.1398 -0.0397,-0.2204 0,-0.08 0.0466,-0.213 0.13977,-0.3997 0.0932,-0.1868 0.2065,-0.3733 0.33997,-0.5597 0.69335,-0.9872 1.64672,-1.754 2.86011,-2.3004 1.21337,-0.5465 2.48656,-0.8197 3.81958,-0.8198 2.29328,0.027 4.17336,0.6869 5.64026,1.98 1.46686,1.2932 2.20029,3.0197 2.20031,5.1795 -2e-5,1.3867 -0.32004,2.5801 -0.96008,3.5803 -0.64007,1.0002 -1.5733,1.7668 -2.79968,2.2998 1.51935,0.4533 2.67902,1.2799 3.479,2.4799 0.79995,1.1999 1.19993,2.56 1.19995,4.0802 -2e-5,2.4804 -0.81321,4.5072 -2.43957,6.0803 -1.6264,1.5731 -3.85316,2.373 -6.6803,2.3999 -1.06609,0 -2.20582,-0.1201 -3.41919,-0.3601 -1.21338,-0.2401 -2.26034,-0.5599 -3.14087,-0.9595 -0.42643,-0.1603 -0.71961,-0.3339 -0.87952,-0.5206 -0.15991,-0.1868 -0.19999,-0.4002 -0.12024,-0.6403 l 0.83985,-2.959 c 0.0269,-0.1334 0.0736,-0.2335 0.14038,-0.3003 0.0667,-0.067 0.16683,-0.1001 0.30029,-0.1001 0,0.027 0.007,0.04 0.0201,0.04 0.0134,0 0.63334,0.2531 1.85975,0.7593 0.66649,0.3206 1.31306,0.5475 1.93969,0.6805 0.62662,0.1331 1.27319,0.1862 1.9397,0.1593 1.33381,0.027 2.40742,-0.3196 3.22082,-1.0394 0.81339,-0.7198 1.22008,-1.7999 1.2201,-3.2403 -2e-5,-1.3868 -0.43337,-2.4001 -1.30005,-3.0402 -0.86671,-0.64 -2.08701,-0.9731 -3.66089,-0.9991 l -1.23901,0 c -0.32065,0 -0.53427,-0.06 -0.64087,-0.1801 -0.10662,-0.12 -0.15992,-0.3269 -0.15991,-0.6207 l 0,0 z m 34.06494,-13.1201 -0.83985,2.8002 c -0.0529,0.1335 -0.11944,0.2336 -0.19958,0.3003 -0.0802,0.067 -0.16013,0.1002 -0.23987,0.1001 -0.10663,10e-5 -0.27325,-0.047 -0.49988,-0.1403 -0.22666,-0.094 -0.39328,-0.1669 -0.49988,-0.2198 -0.32065,-0.08 -0.61423,-0.1462 -0.88073,-0.1996 -0.26654,-0.053 -0.51983,-0.08 -0.75989,-0.08 -1.70656,0.026 -3.13315,0.6124 -4.27979,1.759 -1.14665,1.1467 -1.97347,2.8268 -2.48047,5.0403 l 0.0806,0.081 c 0.58674,-0.8 1.2801,-1.3934 2.08008,-1.7804 0.79996,-0.387 1.66665,-0.5805 2.6001,-0.5805 2.31932,0 4.11233,0.8535 5.37903,2.5605 1.26666,1.7069 1.91343,3.9471 1.9403,6.7205 -2e-5,3.0933 -0.76662,5.5465 -2.2998,7.3597 -1.53322,1.8131 -3.63323,2.7197 -6.30005,2.7197 -1.52019,-0.027 -2.82695,-0.327 -3.92029,-0.9003 -1.09335,-0.5733 -1.99972,-1.4199 -2.71911,-2.5397 -0.64047,-0.9334 -1.12061,-2.1002 -1.44043,-3.5003 -0.31983,-1.4002 -0.47974,-2.9934 -0.47974,-4.7797 0,-2.2135 0.21993,-4.2602 0.65979,-6.1401 0.43986,-1.8799 1.0732,-3.4998 1.90002,-4.8596 1.09293,-1.7871 2.44608,-3.1273 4.05945,-4.0204 1.61335,-0.8932 3.40677,-1.3397 5.38025,-1.3398 0.66649,10e-5 1.31305,0.073 1.9397,0.2198 0.62661,0.1465 1.12669,0.3398 1.50024,0.5798 0.1603,0.1335 0.26711,0.2468 0.32044,0.34 0.0533,0.093 0.0531,0.2598 -6.1e-4,0.4999 l 0,0 z m -6.99952,22.1203 c 1.04003,0 1.90002,-0.4466 2.57996,-1.3397 0.67992,-0.8931 1.01988,-2.2732 1.0199,-4.14 -0.0269,-1.8132 -0.36033,-3.1531 -1.00037,-4.0198 -0.64007,-0.8667 -1.49313,-1.3135 -2.5592,-1.3403 -1.22723,0 -2.134,0.4799 -2.72034,1.4398 -0.58635,0.9599 -0.87952,2.2666 -0.87952,3.9203 0,1.7602 0.29317,3.1136 0.87952,4.06 0.58634,0.9465 1.47969,1.4197 2.68005,1.4197 l 0,0 z m 31.46607,-9.7204 c -2e-5,4.6134 -0.82684,8.1069 -2.48047,10.4803 -1.65366,2.3735 -3.98683,3.5602 -6.99951,3.5602 -3.04037,0 -5.38066,-1.1867 -7.02088,-3.5602 -1.64022,-2.3734 -2.46032,-5.8669 -2.46032,-10.4803 0,-4.7193 0.84676,-8.2322 2.54028,-10.539 1.69352,-2.3067 4.00715,-3.4735 6.94092,-3.5004 2.90607,10e-5 5.21259,1.1601 6.91955,3.4803 1.70693,2.3201 2.56041,5.8398 2.56043,10.5591 l 0,0 z m -9.47998,9.7204 c 1.46646,0 2.56631,-0.7332 3.29956,-2.1997 0.73322,-1.4665 1.09984,-3.9734 1.09985,-7.5207 -1e-5,-3.5197 -0.36663,-6.0195 -1.09985,-7.4994 -0.73325,-1.4799 -1.8331,-2.2199 -3.29956,-2.2199 -1.49415,0 -2.60112,0.74 -3.32092,2.2199 -0.71982,1.4799 -1.07972,3.9797 -1.07972,7.4994 0,3.5473 0.3599,6.0542 1.07972,7.5207 0.7198,1.4665 1.82677,2.1997 3.32092,2.1997 l 0,0 z"
       style="font-style:normal;font-weight:normal;font-size:12px;font-family:'Bitstream Vera Sans';fill:url(#linearGradient4658);fill-opacity:1;stroke:none;stroke-width:1px;stroke-linecap:butt;stroke-linejoin:miter;stroke-opacity:1"
       id="text2790"
       inkscape:connector-curvature="0" />
    <path
       d="m 564.8821,1017.6133 0,-2.6795 c -1e-5,-0.2669 0.0468,-0.4736 0.14038,-0.6201 0.0936,-0.1465 0.31371,-0.2197 0.6604,-0.2197 l 1.31958,0 c 1.41356,0 2.49368,-0.3068 3.24035,-0.9204 0.74665,-0.6136 1.11999,-1.5601 1.12,-2.8394 -0.0269,-0.9334 -0.33367,-1.7134 -0.92041,-2.3401 -0.58676,-0.6266 -1.36028,-0.9399 -2.32056,-0.9399 -0.5599,0 -1.13323,0.1465 -1.71997,0.4394 -0.58676,0.293 -1.13323,0.7064 -1.6394,1.2403 -0.42644,0.4533 -0.67302,0.6932 -0.73975,0.7196 -0.0667,0.026 -0.11353,0.04 -0.14038,0.04 -0.0537,0 -0.0938,-0.01 -0.12024,-0.02 -0.0265,-0.013 -0.093,-0.073 -0.19958,-0.1794 l -2.19971,-1.9605 c -0.0806,-0.054 -0.13408,-0.1137 -0.16052,-0.18 -0.0265,-0.066 -0.0397,-0.1398 -0.0397,-0.2204 0,-0.08 0.0466,-0.213 0.13977,-0.3997 0.0932,-0.1868 0.2065,-0.3733 0.33997,-0.5597 0.69335,-0.9872 1.64672,-1.754 2.86011,-2.3004 1.21337,-0.5465 2.48656,-0.8197 3.81958,-0.8198 2.29328,0.027 4.17336,0.6869 5.64026,1.98 1.46686,1.2932 2.20029,3.0197 2.20031,5.1795 -2e-5,1.3867 -0.32004,2.5801 -0.96008,3.5803 -0.64007,1.0002 -1.5733,1.7668 -2.79968,2.2998 1.51935,0.4533 2.67902,1.2799 3.479,2.4799 0.79995,1.1999 1.19993,2.56 1.19995,4.0802 -2e-5,2.4804 -0.81321,4.5072 -2.43957,6.0803 -1.6264,1.5731 -3.85316,2.373 -6.6803,2.3999 -1.06609,0 -2.20582,-0.1201 -3.41919,-0.3601 -1.21338,-0.2401 -2.26034,-0.5599 -3.14087,-0.9595 -0.42643,-0.1603 -0.71961,-0.3339 -0.87952,-0.5206 -0.15991,-0.1868 -0.19999,-0.4002 -0.12024,-0.6403 l 0.83985,-2.959 c 0.0269,-0.1334 0.0736,-0.2335 0.14038,-0.3003 0.0667,-0.067 0.16683,-0.1001 0.30029,-0.1001 0,0.027 0.007,0.04 0.0201,0.04 0.0134,0 0.63334,0.2531 1.85975,0.7593 0.66649,0.3206 1.31306,0.5475 1.93969,0.6805 0.62662,0.1331 1.27319,0.1862 1.9397,0.1593 1.33381,0.027 2.40742,-0.3196 3.22082,-1.0394 0.81339,-0.7198 1.22008,-1.7999 1.2201,-3.2403 -2e-5,-1.3868 -0.43337,-2.4001 -1.30005,-3.0402 -0.86671,-0.64 -2.08701,-0.9731 -3.66089,-0.9991 l -1.23901,0 c -0.32065,0 -0.53427,-0.06 -0.64087,-0.1801 -0.10662,-0.12 -0.15992,-0.3269 -0.15991,-0.6207 l 0,0 z m 36.26586,-0.7202 c -2e-5,4.6134 -0.82684,8.1069 -2.48046,10.4803 -1.65367,2.3735 -3.98683,3.5602 -6.99952,3.5602 -3.04037,0 -5.38066,-1.1867 -7.02087,-3.5602 -1.64022,-2.3734 -2.46033,-5.8669 -2.46033,-10.4803 0,-4.7193 0.84676,-8.2322 2.54029,-10.539 1.69351,-2.3067 4.00715,-3.4735 6.94091,-3.5004 2.90608,10e-5 5.21259,1.1601 6.91956,3.4803 1.70693,2.3201 2.5604,5.8398 2.56042,10.5591 l 0,0 z m -9.47998,9.7204 c 1.46646,0 2.56632,-0.7332 3.29956,-2.1997 0.73322,-1.4665 1.09984,-3.9734 1.09986,-7.5207 -2e-5,-3.5197 -0.36664,-6.0195 -1.09986,-7.4994 -0.73324,-1.4799 -1.8331,-2.2199 -3.29956,-2.2199 -1.49415,0 -2.60112,0.74 -3.32092,2.2199 -0.71981,1.4799 -1.07972,3.9797 -1.07971,7.4994 -10e-6,3.5473 0.3599,6.0542 1.07971,7.5207 0.7198,1.4665 1.82677,2.1997 3.32092,2.1997 l 0,0 z m 31.74561,-9.7204 c -2e-5,4.6134 -0.82684,8.1069 -2.48047,10.4803 -1.65366,2.3735 -3.98683,3.5602 -6.99951,3.5602 -3.04037,0 -5.38066,-1.1867 -7.02088,-3.5602 -1.64022,-2.3734 -2.46032,-5.8669 -2.46032,-10.4803 0,-4.7193 0.84676,-8.2322 2.54028,-10.539 1.69352,-2.3067 4.00715,-3.4735 6.94092,-3.5004 2.90607,10e-5 5.21259,1.1601 6.91955,3.4803 1.70693,2.3201 2.56041,5.8398 2.56043,10.5591 l 0,0 z m -9.47998,9.7204 c 1.46646,0 2.56631,-0.7332 3.29956,-2.1997 0.73322,-1.4665 1.09984,-3.9734 1.09985,-7.5207 -1e-5,-3.5197 -0.36663,-6.0195 -1.09985,-7.4994 -0.73325,-1.4799 -1.8331,-2.2199 -3.29956,-2.2199 -1.49415,0 -2.60112,0.74 -3.32092,2.2199 -0.71982,1.4799 -1.07972,3.9797 -1.07972,7.4994 0,3.5473 0.3599,6.0542 1.07972,7.5207 0.7198,1.4665 1.82677,2.1997 3.32092,2.1997 l 0,0 z"
       style="font-style:normal;font-weight:normal;font-size:12px;font-family:'Bitstream Vera Sans';fill:url(#linearGradient4650);fill-opacity:1;stroke:none;stroke-width:1px;stroke-linecap:butt;stroke-linejoin:miter;stroke-opacity:1"
       id="text2794"
       inkscape:connector-curvature="0" />
    <path
       d="m 467.32228,1026.4939 0,2.9199 c -2e-5,0.293 -0.0667,0.5062 -0.20019,0.6397 -0.13349,0.1334 -0.33368,0.2002 -0.60059,0.2002 l -14.4397,0 c -0.18636,0 -0.31962,-0.047 -0.39978,-0.1398 -0.0802,-0.093 -0.12024,-0.2733 -0.12024,-0.5402 0,-1.333 0.0732,-2.4863 0.21973,-3.4601 0.14648,-0.9737 0.36661,-1.8202 0.6604,-2.5396 0.34667,-0.9066 0.88663,-1.78 1.61987,-2.6203 0.73323,-0.8402 1.93969,-1.9134 3.61939,-3.2196 2.08006,-1.6268 3.44013,-2.9268 4.0802,-3.9001 0.64004,-0.9733 0.97349,-2.0866 1.00036,-3.3399 -10e-6,-1.0668 -0.31332,-1.8802 -0.93994,-2.4402 -0.62664,-0.5598 -1.40667,-0.8532 -2.34009,-0.8801 -0.87973,0 -1.60625,0.2267 -2.17956,0.6799 -0.57333,0.4534 -1.11349,1.2265 -1.62048,2.3194 -0.29298,0.6136 -0.48626,0.9538 -0.57984,1.0205 -0.0936,0.067 -0.18026,0.1001 -0.26001,0.1001 -0.0537,0 -0.0938,0 -0.12024,0 -0.0265,0 -0.13286,-0.04 -0.31921,-0.1196 l -2.56104,-0.9607 c -0.1595,-0.053 -0.27262,-0.1262 -0.33935,-0.2198 -0.0667,-0.094 -0.1001,-0.2201 -0.1001,-0.3796 0,-0.3206 0.0867,-0.7275 0.26001,-1.2207 0.17334,-0.4931 0.39347,-0.9529 0.6604,-1.3794 0.74625,-1.2532 1.76615,-2.2599 3.05969,-3.02 1.29353,-0.7601 2.82002,-1.1401 4.57947,-1.1402 2.37385,10e-5 4.23399,0.6601 5.58045,1.98 1.34641,1.32 2.01963,3.1535 2.01965,5.5005 -2e-5,1.8661 -0.38658,3.4792 -1.15967,4.8395 -0.77313,1.3603 -2.34661,2.947 -4.72046,4.7601 l -1.71997,1.3196 c -1.01319,0.8 -1.73971,1.5466 -2.17956,2.24 -0.43987,0.6934 -0.6598,1.4136 -0.65979,2.1606 l 9.39941,0 c 0.24005,0 0.42682,0.047 0.5603,0.1398 0.13345,0.093 0.21361,0.3266 0.24048,0.7001 l 0,0 z m 20.90454,-1.5198 0,5.1599 c -2e-5,0.2661 -0.0466,0.4659 -0.13977,0.5994 -0.0932,0.1335 -0.31313,0.2002 -0.65979,0.2002 l -3.48022,0 c -0.29299,0 -0.5062,-0.047 -0.63965,-0.1398 -0.13348,-0.093 -0.18678,-0.2732 -0.15991,-0.5401 l 0,-5.2796 -9.75953,0 c -0.32064,0.026 -0.54097,-0.01 -0.66101,-0.1007 -0.12003,-0.093 -0.18005,-0.3265 -0.18005,-0.7001 l 0,-4.1992 9.96094,-16.6003 c 0.15949,-0.2669 0.2659,-0.4136 0.31921,-0.4401 0.0533,-0.026 0.12023,-0.053 0.20081,-0.08 0.026,10e-5 0.0525,10e-5 0.0793,0 0.0269,10e-5 0.0537,10e-5 0.0806,0 -10e-6,0.027 0.006,0.04 0.0195,0.04 0.013,1e-4 0.11311,0.026 0.30029,0.079 l 1.31958,0.5603 1.15967,0.4797 c 0.24006,0.1335 0.39346,0.2403 0.46021,0.3205 0.0667,0.08 0.10008,0.1601 0.10009,0.2398 -1e-5,0.08 -0.0199,0.1598 -0.0598,0.2399 -0.0399,0.08 -0.0733,0.1601 -0.1001,0.2399 l -9.36035,15.9204 6.12061,0 0.63964,-6.4405 c 0.0268,-0.3466 0.10701,-0.5666 0.24048,-0.6598 0.13345,-0.093 0.33324,-0.1397 0.59937,-0.1397 l 2.80029,0 c 0.29377,0.027 0.49396,0.1001 0.60059,0.2197 0.10659,0.1196 0.17291,0.3264 0.19897,0.6201 l 0,6.4002 2.23999,0 c 0.42723,0 0.67422,0.08 0.74097,0.2398 0.0667,0.16 0.10008,0.3998 0.1001,0.7196 l 0,2.24 c -0.0269,0.3736 -0.10033,0.6004 -0.22034,0.6806 -0.12006,0.08 -0.32697,0.1202 -0.62073,0.1202 l -2.23999,0 z m 25.18677,-8.081 c -2e-5,4.6134 -0.82684,8.1069 -2.48047,10.4803 -1.65366,2.3735 -3.98683,3.5602 -6.99951,3.5602 -3.04037,0 -5.38066,-1.1867 -7.02088,-3.5602 -1.64022,-2.3734 -2.46032,-5.8669 -2.46032,-10.4803 0,-4.7193 0.84676,-8.2322 2.54028,-10.539 1.69352,-2.3067 4.00715,-3.4735 6.94092,-3.5004 2.90607,10e-5 5.21259,1.1601 6.91955,3.4803 1.70693,2.3201 2.56041,5.8398 2.56043,10.5591 l 0,0 z m -9.47998,9.7204 c 1.46646,0 2.56631,-0.7332 3.29956,-2.1997 0.73322,-1.4665 1.09984,-3.9734 1.09985,-7.5207 -10e-6,-3.5197 -0.36663,-6.0195 -1.09985,-7.4994 -0.73325,-1.4799 -1.8331,-2.2199 -3.29956,-2.2199 -1.49415,0 -2.60112,0.74 -3.32092,2.2199 -0.71982,1.4799 -1.07972,3.9797 -1.07972,7.4994 0,3.5473 0.3599,6.0542 1.07972,7.5207 0.7198,1.4665 1.82677,2.1997 3.32092,2.1997 l 0,0 z"
       style="font-style:normal;font-weight:normal;font-size:12px;font-family:'Bitstream Vera Sans';fill:url(#linearGradient4642);fill-opacity:1;stroke:none;stroke-width:1px;stroke-linecap:butt;stroke-linejoin:miter;stroke-opacity:1"
       id="text2798"
       inkscape:connector-curvature="0" />
    <path
       d="m 357.0818,1027.0933 0,2.6 c -0.0269,0.267 -0.0802,0.4271 -0.15991,0.4804 -0.0798,0.053 -0.21323,0.08 -0.40039,0.08 l -12.28027,0 c -0.23927,0 -0.39898,-0.04 -0.47913,-0.1203 -0.0802,-0.08 -0.10682,-0.2268 -0.08,-0.4401 l 0,-2.6 c 0,-0.2133 0.0399,-0.3597 0.11963,-0.4395 0.0798,-0.08 0.22623,-0.1196 0.43946,-0.1196 l 4.04052,0 0,-16.9605 -4.32006,2.6795 c -0.16033,0.1066 -0.26714,0.1666 -0.32044,0.18 -0.0533,0.013 -0.10641,0.02 -0.1593,0.02 -0.10661,0 -0.19328,-0.02 -0.26001,-0.06 -0.0667,-0.04 -0.16684,-0.1932 -0.30029,-0.4602 l -1.04004,-1.7993 c -0.0798,-0.081 -0.12635,-0.1607 -0.13977,-0.2405 -0.0134,-0.08 -0.0202,-0.1729 -0.0202,-0.2795 0,-0.081 0.0266,-0.1674 0.08,-0.2606 0.0533,-0.093 0.18656,-0.2199 0.39978,-0.3803 l 7.55982,-5.4394 2.80029,0 c 0.26691,0 0.46711,0.047 0.60058,0.1398 0.13345,0.093 0.20018,0.2866 0.2002,0.5804 l 0,22.2803 3.15918,0 c 0.18716,0.026 0.32062,0.066 0.40039,0.119 0.0797,0.053 0.13304,0.2 0.15991,0.4401 l 0,0 z m 18.38501,-10.9998 c 1.78709,0.6934 3.16059,1.6667 4.12049,2.9199 0.95985,1.2533 1.43979,2.64 1.43981,4.1602 -2e-5,2.1598 -0.84657,3.9931 -2.53967,5.4999 -1.69313,1.5067 -3.97971,2.2601 -6.85974,2.2601 -2.93376,0 -5.22726,-0.7133 -6.88049,-2.1399 -1.65324,-1.4266 -2.47986,-3.2601 -2.47986,-5.5005 0,-1.1466 0.25329,-2.2066 0.75989,-3.1799 0.50659,-0.9733 1.24002,-1.7932 2.20031,-2.4597 0.31982,-0.2401 0.73974,-0.4934 1.25977,-0.7599 0.52001,-0.2665 1.00667,-0.4934 1.45996,-0.6806 -0.42644,-0.1595 -0.83965,-0.366 -1.23962,-0.6195 -0.39999,-0.2535 -0.7599,-0.5133 -1.07972,-0.7794 -0.82682,-0.6404 -1.427,-1.3674 -1.80053,-2.1808 -0.37354,-0.8134 -0.56031,-1.6733 -0.56031,-2.5799 0,-2.0801 0.80668,-3.7934 2.42005,-5.1398 1.61335,-1.3464 3.60696,-2.0331 5.98083,-2.06 2.5065,0.027 4.51964,0.7402 6.03943,2.1399 1.51976,1.3998 2.27965,3.0067 2.27967,4.8206 -0.0269,0.9863 -0.2403,1.8929 -0.64026,2.7197 -0.40001,0.8269 -0.9597,1.5332 -1.67908,2.1192 -0.2938,0.2669 -0.64068,0.5271 -1.04065,0.7806 -0.4,0.2535 -0.78676,0.4734 -1.16028,0.6598 l 0,0 z m -3.63891,-1.7993 c 1.11978,-0.4801 1.91303,-1.027 2.37976,-1.6406 0.4667,-0.6136 0.70006,-1.3737 0.70007,-2.2803 -0.0269,-0.9334 -0.34039,-1.72 -0.94055,-2.3596 -0.60019,-0.6397 -1.38002,-0.9595 -2.33948,-0.9595 -0.93344,0.026 -1.71347,0.3459 -2.34009,0.9595 -0.62663,0.6136 -0.93995,1.3871 -0.93994,2.3205 -10e-6,0.826 0.32002,1.5992 0.96008,2.3194 0.64005,0.7202 1.4801,1.2671 2.52015,1.6406 l 0,0 z m -0.44068,3.8 c -1.25326,0.5331 -2.23979,1.2397 -2.95959,2.1198 -0.71982,0.8801 -1.07972,1.8133 -1.07971,2.7997 -0.0269,1.0929 0.33975,1.986 1.09985,2.6794 0.76008,0.6934 1.82006,1.04 3.17993,1.04 1.333,0 2.38626,-0.3599 3.15979,-1.0797 0.7735,-0.7198 1.16026,-1.5863 1.16028,-2.5995 -2e-5,-1.0131 -0.43337,-1.9598 -1.30005,-2.8399 -0.86671,-0.8801 -1.95354,-1.5867 -3.2605,-2.1198 l 0,0 z m 32.02637,-1.2011 c -2e-5,4.6134 -0.82684,8.1069 -2.48047,10.4803 -1.65366,2.3735 -3.98683,3.5602 -6.99951,3.5602 -3.04037,0 -5.38066,-1.1867 -7.02088,-3.5602 -1.64022,-2.3734 -2.46032,-5.8669 -2.46032,-10.4803 0,-4.7193 0.84676,-8.2322 2.54028,-10.539 1.69352,-2.3067 4.00715,-3.4735 6.94092,-3.5004 2.90607,10e-5 5.21259,1.1601 6.91955,3.4803 1.70693,2.3201 2.56041,5.8398 2.56043,10.5591 l 0,0 z m -9.47998,9.7204 c 1.46646,0 2.56631,-0.7332 3.29956,-2.1997 0.73322,-1.4665 1.09984,-3.9734 1.09985,-7.5207 -10e-6,-3.5197 -0.36663,-6.0195 -1.09985,-7.4994 -0.73325,-1.4799 -1.8331,-2.2199 -3.29956,-2.2199 -1.49415,0 -2.60112,0.74 -3.32092,2.2199 -0.71982,1.4799 -1.07972,3.9797 -1.07972,7.4994 0,3.5473 0.3599,6.0542 1.07972,7.5207 0.7198,1.4665 1.82677,2.1997 3.32092,2.1997 l 0,0 z"
       style="font-style:normal;font-weight:normal;font-size:12px;font-family:'Bitstream Vera Sans';fill:url(#linearGradient4634);fill-opacity:1;stroke:none;stroke-width:1px;stroke-linecap:butt;stroke-linejoin:miter;stroke-opacity:1"
       id="text2802"
       inkscape:connector-curvature="0" />
    <path
       d="m 247.0818,1027.0933 0,2.6 c -0.0269,0.267 -0.0802,0.4271 -0.15991,0.4804 -0.0798,0.053 -0.21323,0.08 -0.40039,0.08 l -12.28027,0 c -0.23927,0 -0.39898,-0.04 -0.47913,-0.1203 -0.0802,-0.08 -0.10682,-0.2268 -0.08,-0.4401 l 0,-2.6 c 0,-0.2133 0.0399,-0.3597 0.11963,-0.4395 0.0797,-0.08 0.22623,-0.1196 0.43946,-0.1196 l 4.04052,0 0,-16.9605 -4.32006,2.6795 c -0.16033,0.1066 -0.26714,0.1666 -0.32044,0.18 -0.0533,0.013 -0.10641,0.02 -0.1593,0.02 -0.10661,0 -0.19328,-0.02 -0.26001,-0.06 -0.0667,-0.04 -0.16684,-0.1932 -0.30029,-0.4602 l -1.04004,-1.7993 c -0.0798,-0.081 -0.12635,-0.1607 -0.13977,-0.2405 -0.0134,-0.08 -0.0202,-0.1729 -0.0202,-0.2795 0,-0.081 0.0267,-0.1674 0.08,-0.2606 0.0533,-0.093 0.18656,-0.2199 0.39978,-0.3803 l 7.55982,-5.4394 2.80029,0 c 0.26691,0 0.46711,0.047 0.60058,0.1398 0.13345,0.093 0.20018,0.2866 0.2002,0.5804 l 0,22.2803 3.15918,0 c 0.18716,0.026 0.32062,0.066 0.40039,0.119 0.0797,0.053 0.13304,0.2 0.15991,0.4401 l 0,0 z m 22.50611,-0.5994 0,2.9199 c -2e-5,0.293 -0.0668,0.5062 -0.2002,0.6397 -0.13348,0.1334 -0.33368,0.2002 -0.60059,0.2002 l -14.43969,0 c -0.18637,0 -0.31963,-0.047 -0.39978,-0.1398 -0.0802,-0.093 -0.12025,-0.2733 -0.12024,-0.5402 -10e-6,-1.333 0.0732,-2.4863 0.21972,-3.4601 0.14649,-0.9737 0.36662,-1.8202 0.6604,-2.5396 0.34668,-0.9066 0.88664,-1.78 1.61988,-2.6203 0.73323,-0.8402 1.93969,-1.9134 3.61938,-3.2196 2.08007,-1.6268 3.44013,-2.9268 4.0802,-3.9001 0.64004,-0.9733 0.9735,-2.0866 1.00037,-3.3399 -2e-5,-1.0668 -0.31333,-1.8802 -0.93994,-2.4402 -0.62664,-0.5598 -1.40667,-0.8532 -2.34009,-0.8801 -0.87973,0 -1.60625,0.2267 -2.17957,0.6799 -0.57333,0.4534 -1.11349,1.2265 -1.62048,2.3194 -0.29298,0.6136 -0.48625,0.9538 -0.57983,1.0205 -0.0936,0.067 -0.18027,0.1001 -0.26001,0.1001 -0.0537,0 -0.0938,0 -0.12024,0 -0.0265,0 -0.13286,-0.04 -0.31922,-0.1196 l -2.56103,-0.9607 c -0.15951,-0.053 -0.27263,-0.1262 -0.33936,-0.2198 -0.0667,-0.094 -0.1001,-0.2201 -0.10009,-0.3796 -1e-5,-0.3206 0.0867,-0.7275 0.26001,-1.2207 0.17333,-0.4931 0.39346,-0.9529 0.6604,-1.3794 0.74625,-1.2532 1.76614,-2.2599 3.05969,-3.02 1.29353,-0.7601 2.82002,-1.1401 4.57947,-1.1402 2.37384,10e-5 4.23399,0.6601 5.58044,1.98 1.34642,1.32 2.01963,3.1535 2.01965,5.5005 -2e-5,1.8661 -0.38657,3.4792 -1.15966,4.8395 -0.77313,1.3603 -2.34662,2.947 -4.72046,4.7601 l -1.71997,1.3196 c -1.0132,0.8 -1.73972,1.5466 -2.17957,2.24 -0.43987,0.6934 -0.6598,1.4136 -0.65979,2.1606 l 9.39941,0 c 0.24006,0 0.42683,0.047 0.56031,0.1398 0.13344,0.093 0.2136,0.3266 0.24048,0.7001 l 0,0 z m 23.82568,-9.6008 c -2e-5,4.6134 -0.82684,8.1069 -2.48047,10.4803 -1.65366,2.3735 -3.98683,3.5602 -6.99951,3.5602 -3.04037,0 -5.38066,-1.1867 -7.02088,-3.5602 -1.64022,-2.3734 -2.46032,-5.8669 -2.46032,-10.4803 0,-4.7193 0.84676,-8.2322 2.54028,-10.539 1.69352,-2.3067 4.00715,-3.4735 6.94092,-3.5004 2.90607,10e-5 5.21259,1.1601 6.91955,3.4803 1.70693,2.3201 2.56041,5.8398 2.56043,10.5591 l 0,0 z m -9.47998,9.7204 c 1.46646,0 2.56631,-0.7332 3.29956,-2.1997 0.73322,-1.4665 1.09984,-3.9734 1.09985,-7.5207 -10e-6,-3.5197 -0.36663,-6.0195 -1.09985,-7.4994 -0.73325,-1.4799 -1.8331,-2.2199 -3.29956,-2.2199 -1.49415,0 -2.60112,0.74 -3.32092,2.2199 -0.71982,1.4799 -1.07972,3.9797 -1.07972,7.4994 0,3.5473 0.3599,6.0542 1.07972,7.5207 0.7198,1.4665 1.82677,2.1997 3.32092,2.1997 l 0,0 z"
       style="font-style:normal;font-weight:normal;font-size:12px;font-family:'Bitstream Vera Sans';fill:url(#linearGradient4626);fill-opacity:1;stroke:none;stroke-width:1px;stroke-linecap:butt;stroke-linejoin:miter;stroke-opacity:1"
       id="text2806"
       inkscape:connector-curvature="0" />
    <path
       d="m 147.81422,1004.4932 -0.83984,2.8002 c -0.0529,0.1335 -0.11944,0.2336 -0.19958,0.3003 -0.0802,0.067 -0.16014,0.1002 -0.23987,0.1001 -0.10663,10e-5 -0.27325,-0.047 -0.49988,-0.1403 -0.22666,-0.094 -0.39329,-0.1669 -0.49988,-0.2198 -0.32065,-0.08 -0.61423,-0.1462 -0.88074,-0.1996 -0.26653,-0.053 -0.51983,-0.08 -0.75988,-0.08 -1.70656,0.026 -3.13315,0.6124 -4.27979,1.759 -1.14665,1.1467 -1.97348,2.8268 -2.48047,5.0403 l 0.0806,0.081 c 0.58674,-0.8 1.2801,-1.3934 2.08008,-1.7804 0.79995,-0.387 1.66665,-0.5805 2.60009,-0.5805 2.31933,0 4.11233,0.8535 5.37903,2.5605 1.26667,1.7069 1.91344,3.9471 1.94031,6.7205 -2e-5,3.0933 -0.76662,5.5465 -2.2998,7.3597 -1.53322,1.8131 -3.63324,2.7197 -6.30005,2.7197 -1.52019,-0.027 -2.82696,-0.327 -3.92029,-0.9003 -1.09335,-0.5733 -1.99972,-1.4199 -2.71912,-2.5397 -0.64046,-0.9334 -1.12061,-2.1002 -1.44043,-3.5003 -0.31982,-1.4002 -0.47974,-2.9934 -0.47973,-4.7797 -1e-5,-2.2135 0.21992,-4.2602 0.65979,-6.1401 0.43985,-1.8799 1.07319,-3.4998 1.90002,-4.8596 1.09293,-1.7871 2.44608,-3.1273 4.05945,-4.0204 1.61335,-0.8932 3.40677,-1.3397 5.38025,-1.3398 0.66649,10e-5 1.31305,0.073 1.9397,0.2198 0.62661,0.1465 1.12669,0.3398 1.50024,0.5798 0.1603,0.1335 0.26711,0.2468 0.32043,0.34 0.0533,0.093 0.0531,0.2598 -6.1e-4,0.4999 l 0,0 z m -6.99951,22.1203 c 1.04003,0 1.90001,-0.4466 2.57996,-1.3397 0.67992,-0.8931 1.01988,-2.2732 1.0199,-4.14 -0.0269,-1.8132 -0.36033,-3.1531 -1.00037,-4.0198 -0.64007,-0.8667 -1.49314,-1.3135 -2.5592,-1.3403 -1.22723,0 -2.13401,0.4799 -2.72034,1.4398 -0.58635,0.9599 -0.87953,2.2666 -0.87952,3.9203 -1e-5,1.7602 0.29317,3.1136 0.87952,4.06 0.58633,0.9465 1.47968,1.4197 2.68005,1.4197 l 0,0 z m 31.46607,-9.7204 c -2e-5,4.6134 -0.82685,8.1069 -2.48047,10.4803 -1.65366,2.3735 -3.98683,3.5602 -6.99951,3.5602 -3.04038,0 -5.38067,-1.1867 -7.02088,-3.5602 -1.64022,-2.3734 -2.46033,-5.8669 -2.46032,-10.4803 -1e-5,-4.7193 0.84675,-8.2322 2.54028,-10.539 1.69351,-2.3067 4.00715,-3.4735 6.94092,-3.5004 2.90607,10e-5 5.21259,1.1601 6.91955,3.4803 1.70693,2.3201 2.56041,5.8398 2.56043,10.5591 l 0,0 z m -9.47998,9.7204 c 1.46646,0 2.56631,-0.7332 3.29956,-2.1997 0.73322,-1.4665 1.09983,-3.9734 1.09985,-7.5207 -2e-5,-3.5197 -0.36663,-6.0195 -1.09985,-7.4994 -0.73325,-1.4799 -1.8331,-2.2199 -3.29956,-2.2199 -1.49415,0 -2.60113,0.74 -3.32093,2.2199 -0.71981,1.4799 -1.07972,3.9797 -1.07971,7.4994 -1e-5,3.5473 0.3599,6.0542 1.07971,7.5207 0.7198,1.4665 1.82678,2.1997 3.32093,2.1997 l 0,0 z"
       style="font-style:normal;font-weight:normal;font-size:12px;font-family:'Bitstream Vera Sans';fill:url(#linearGradient4618);fill-opacity:1;stroke:none;stroke-width:1px;stroke-linecap:butt;stroke-linejoin:miter;stroke-opacity:1"
       id="text2810"
       inkscape:connector-curvature="0" />
  </g>
  <text
     xml:space="preserve"
     style="font-style:normal;font-weight:normal;font-size:37.5px;line-height:125%;font-family:sans-serif;letter-spacing:0px;word-spacing:0px;fill:#000000;fill-opacity:1;stroke:none;stroke-width:1px;stroke-linecap:butt;stroke-linejoin:miter;stroke-opacity:1"
     x="85.880135"
     y="43.740234"
     id="text4186"
     sodipodi:linespacing="125%"><tspan
       sodipodi:role="line"
       id="tspan4188"
       x="85.880135"
       y="43.740234"
       style="font-size:60px">1</tspan></text>
  <text
     xml:space="preserve"
     style="font-style:normal;font-weight:normal;font-size:37.5px;line-height:125%;font-family:sans-serif;letter-spacing:0px;word-spacing:0px;fill:#000000;fill-opacity:1;stroke:none;stroke-width:1px;stroke-linecap:butt;stroke-linejoin:miter;stroke-opacity:1"
     x="87.528084"
     y="642.89062"
     id="text4186-3"
     sodipodi:linespacing="125%"><tspan
       sodipodi:role="line"
       id="tspan4188-6"
       x="87.528084"
       y="642.89062"
       style="font-size:60px">0</tspan></text>
  <text
     xml:space="preserve"
     style="font-style:normal;font-weight:normal;font-size:37.5px;line-height:125%;font-family:sans-serif;letter-spacing:0px;word-spacing:0px;fill:#000000;fill-opacity:1;stroke:none;stroke-width:1px;stroke-linecap:butt;stroke-linejoin:miter;stroke-opacity:1"
     x="57.52808"
     y="154.20923"
     id="text4186-7"
     sodipodi:linespacing="125%"><tspan
       sodipodi:role="line"
       id="tspan4188-5"
       x="57.52808"
       y="154.20923"
       style="font-size:60px">0.8</tspan></text>
  <text
     xml:space="preserve"
     style="font-style:normal;font-weight:normal;font-size:37.5px;line-height:125%;font-family:sans-serif;letter-spacing:0px;word-spacing:0px;fill:#000000;fill-opacity:1;stroke:none;stroke-width:1px;stroke-linecap:butt;stroke-linejoin:miter;stroke-opacity:1"
     x="57.52808"
     y="274.20923"
     id="text4186-7-3"
     sodipodi:linespacing="125%"><tspan
       sodipodi:role="line"
       id="tspan4188-5-5"
       x="57.52808"
       y="274.20923"
       style="font-size:60px">0.6</tspan></text>
  <text
     xml:space="preserve"
     style="font-style:normal;font-weight:normal;font-size:37.5px;line-height:125%;font-family:sans-serif;letter-spacing:0px;word-spacing:0px;fill:#000000;fill-opacity:1;stroke:none;stroke-width:1px;stroke-linecap:butt;stroke-linejoin:miter;stroke-opacity:1"
     x="57.52808"
     y="394.20923"
     id="text4186-7-6"
     sodipodi:linespacing="125%"><tspan
       sodipodi:role="line"
       id="tspan4188-5-2"
       x="57.52808"
       y="394.20923"
       style="font-size:60px">0.4</tspan></text>
  <text
     xml:space="preserve"
     style="font-style:normal;font-weight:normal;font-size:37.5px;line-height:125%;font-family:sans-serif;letter-spacing:0px;word-spacing:0px;fill:#000000;fill-opacity:1;stroke:none;stroke-width:1px;stroke-linecap:butt;stroke-linejoin:miter;stroke-opacity:1"
     x="57.52808"
     y="514.20923"
     id="text4186-7-9"
     sodipodi:linespacing="125%"><tspan
       sodipodi:role="line"
       id="tspan4188-5-1"
       x="57.52808"
       y="514.20923"
       style="font-size:60px">0.2</tspan></text>
</svg>
