<!DOCTYPE svg PUBLIC "-//W3C//DTD SVG 1.1//EN" "http://www.w3.org/Graphics/SVG/1.1/DTD/svg11.dtd">
<svg xmlns="http://www.w3.org/2000/svg" style="background-color: rgb(255, 255, 255);" xmlns:xlink="http://www.w3.org/1999/xlink" width="743px" height="1471px" version="1.1" content="&lt;mxfile userAgent=&quot;Mozilla/5.0 (X11; Ubuntu; Linux x86_64; rv:58.0) Gecko/20100101 Firefox/58.0&quot; version=&quot;8.0.8&quot; editor=&quot;www.draw.io&quot; type=&quot;device&quot;&gt;&lt;diagram id=&quot;70a07f22-8794-e2d2-4bab-316b42e34071&quot; name=&quot;Page-1&quot;&gt;3ZnLcpswFIafhmU86AZo2ThpumhnOpNF0yUximEiI48sx3afvsJIBgFOiCF2GzZGP7p+5+jogD00XWzvZLxMf4iEcQ/6ydZDNx6EEEVI/xTKzihBAEplLrOk1GrCffaHGdE36jpL2MqpqITgKlu64kzkOZspR4ulFBu32pPg7qjLeM5awv0s5m31V5aotFQjGFb6N5bNUzsyCGj55DGePc+lWOdmPA+ip/1VPl7Eti+z0FUaJ2JTk9Cth6ZSCFXeLbZTxgu4FlvZ7uuRp4d5S5arPg1g2eAl5mtmZ7yfl9pZFnqKy+J2tuNZnjDpoetNmil2v4xnhb7RPqC1VC24LgF9+1isnyXfH63QnpWZ6AuTim1rkpnlHRMLpuROV7FOFRhiO+spiJTCpjIQQqZSWjcONBVj4xTzQ+cVGH1j2BzhRN4GxfLkS+F7upSLnLlMytosafldg0kbQG19pGN5VpOMxyp7cbvvWrIZ4afI9MAVXwocvohSt4uVWMsZM63qHtXoCAHXUFcHwfakYjlnqtXT3gSHdfezCv70VkHjWAX4/vnMAnpEFVnGCF3w3w4oI8QPBN31R7ZcMyToMCTEI0QP0MNPzw2EgEsC8f/XcyekPY8dNAam4N/zmyYQ1HYb2IEjDP3hPCAamYcUSodnkeviVUAOgFo0eh0JFlBIHEDY7yBE2oRANAKgsR2mBgj4Y/FpZHLwfHjCt/G8mi+wbaYeave/C4qTkLwjldCD7c/susEulV4g0ghuYKLTAoSxftMhUWDDz3uTDdoIETj4uAwwGmjRvma7XAboRpNmD6cngAB+mFXQ4H2W67EeTIjaF8qdRmp70Hf24OlbEJvJlsuvH96XsjnBdEJxdbkeAHxIJj6prvA0j2i+qAEQfZxDDN2mfRwCjOoQFzN+hCc0CEMMKCI4QrTD+AEmIACQ+shyfK/xXx+F0lcHGdEv+nxW4Txbrljf5HZQbkIaByKl7dwNdSUnIyS3uE/QvCALoGPO+WCM/cb8lHE+FVzIfVv7URZdr5QUz8w+MYFnFHqgQQ90uBI6HkYG0fvsWZEOX0foDs6L2l2dHO50sfqSX1av/i9Bt38B&lt;/diagram&gt;&lt;/mxfile&gt;"><defs/><g transform="translate(0.5,0.5)"><path d="M 0 1370 C 0 1336.67 330 1336.67 330 1370 L 330 1445 C 330 1478.33 0 1478.33 0 1445 Z" fill="#ffffff" stroke="#000000" stroke-miterlimit="10" pointer-events="none"/><path d="M 0 1370 C 0 1395 330 1395 330 1370" fill="none" stroke="#000000" stroke-miterlimit="10" pointer-events="none"/><path d="M 31 709 L 50 0" fill="none" stroke="#000000" stroke-miterlimit="10" pointer-events="none"/><path d="M 33 709 L 740 0" fill="none" stroke="#000000" stroke-miterlimit="10" pointer-events="none"/><rect x="60" y="1130" width="10" height="245" fill="#ffffff" stroke="#000000" pointer-events="none"/><rect x="250" y="1130" width="10" height="245" fill="#ffffff" stroke="#000000" pointer-events="none"/><path d="M 0 1112 C 0 1102.67 330 1102.67 330 1112 L 330 1133 C 330 1142.33 0 1142.33 0 1133 Z" fill="#ffffff" stroke="#000000" stroke-miterlimit="10" pointer-events="none"/><path d="M 0 1112 C 0 1119 330 1119 330 1112" fill="none" stroke="#000000" stroke-miterlimit="10" pointer-events="none"/><rect x="0" y="340" width="20" height="770" fill="#ffffff" stroke="#000000" pointer-events="none"/><rect x="15" y="710" width="25" height="18" fill="#ffffff" stroke="#000000" transform="rotate(-65,27.5,719)" pointer-events="none"/><rect x="10" y="322" width="25" height="18" fill="#ffffff" stroke="#000000" transform="rotate(10,22.5,331)" pointer-events="none"/><path d="M 33.67 337.33 L 700 770" fill="none" stroke="#000000" stroke-miterlimit="10" pointer-events="none"/><path d="M 35 331 L 740 190" fill="none" stroke="#000000" stroke-miterlimit="10" pointer-events="none"/><path d="M 290.33 1370.67 L 290.33 1305.67" fill="none" stroke="#000000" stroke-miterlimit="10" pointer-events="none"/><path d="M 325.33 1370.67 L 324.97 1305.06" fill="none" stroke="#000000" stroke-miterlimit="10" pointer-events="none"/><ellipse cx="308" cy="1305" rx="17.5" ry="5" fill="#ffffff" stroke="#000000" pointer-events="none"/><ellipse cx="308" cy="1370" rx="17.5" ry="5" fill="#ffffff" stroke="#000000" pointer-events="none"/><rect x="291" y="1320" width="33" height="50" fill="#ffffff" stroke="none" pointer-events="none"/><path d="M 324 1320 L 740 1320" fill="none" stroke="#000000" stroke-miterlimit="10" pointer-events="none"/></g></svg>