<?xml version="1.0" encoding="UTF-8" standalone="no"?>
<!-- Created with Inkscape (http://www.inkscape.org/) -->

<svg
   xmlns:dc="http://purl.org/dc/elements/1.1/"
   xmlns:cc="http://creativecommons.org/ns#"
   xmlns:rdf="http://www.w3.org/1999/02/22-rdf-syntax-ns#"
   xmlns:svg="http://www.w3.org/2000/svg"
   xmlns="http://www.w3.org/2000/svg"
   xmlns:sodipodi="http://sodipodi.sourceforge.net/DTD/sodipodi-0.dtd"
   xmlns:inkscape="http://www.inkscape.org/namespaces/inkscape"
   width="56.444454mm"
   height="56.44445mm"
   viewBox="0 0 200.00003 200.00002"
   id="svg2"
   version="1.1"
   inkscape:version="0.91 r13725"
   sodipodi:docname="seen_map_boxes.svg">
  <defs
     id="defs4">
    <marker
       inkscape:stockid="Arrow1Lend"
       orient="auto"
       refY="0"
       refX="0"
       id="Arrow1Lend"
       style="overflow:visible"
       inkscape:isstock="true">
      <path
         id="path4270"
         d="M 0,0 5,-5 -12.5,0 5,5 0,0 Z"
         style="fill:#ff0000;fill-opacity:1;fill-rule:evenodd;stroke:#ff0000;stroke-width:1pt;stroke-opacity:1"
         transform="matrix(-0.8,0,0,-0.8,-10,0)"
         inkscape:connector-curvature="0" />
    </marker>
  </defs>
  <sodipodi:namedview
     id="base"
     pagecolor="#ffffff"
     bordercolor="#666666"
     borderopacity="1.0"
     inkscape:pageopacity="0.0"
     inkscape:pageshadow="2"
     inkscape:zoom="2.8"
     inkscape:cx="82.933668"
     inkscape:cy="68.081097"
     inkscape:document-units="px"
     inkscape:current-layer="layer1"
     showgrid="false"
     inkscape:window-width="1920"
     inkscape:window-height="1174"
     inkscape:window-x="1920"
     inkscape:window-y="0"
     inkscape:window-maximized="1"
     fit-margin-top="0"
     fit-margin-left="0"
     fit-margin-right="0"
     fit-margin-bottom="0" />
  <metadata
     id="metadata7">
    <rdf:RDF>
      <cc:Work
         rdf:about="">
        <dc:format>image/svg+xml</dc:format>
        <dc:type
           rdf:resource="http://purl.org/dc/dcmitype/StillImage" />
        <dc:title></dc:title>
      </cc:Work>
    </rdf:RDF>
  </metadata>
  <g
     inkscape:label="Layer 1"
     inkscape:groupmode="layer"
     id="layer1"
     transform="translate(-200,-652.36218)">
    <circle
       style="opacity:1;fill:none;fill-opacity:1;stroke:#000000;stroke-width:0.99125785;stroke-miterlimit:4;stroke-dasharray:none;stroke-opacity:1"
       id="path4136"
       cx="300.00003"
       cy="752.36218"
       r="99.504372" />
    <path
       style="fill:none;fill-rule:evenodd;stroke:#000000;stroke-width:1;stroke-linecap:butt;stroke-linejoin:miter;stroke-miterlimit:4;stroke-dasharray:none;stroke-opacity:1"
       d="m 300.5,652.3622 0,200"
       id="path4140"
       inkscape:connector-curvature="0" />
    <path
       style="fill:none;fill-rule:evenodd;stroke:#000000;stroke-width:1;stroke-linecap:butt;stroke-linejoin:miter;stroke-miterlimit:4;stroke-dasharray:none;stroke-opacity:1"
       d="m 200,751.86221 200,0"
       id="path4140-3"
       inkscape:connector-curvature="0" />
    <path
       style="fill:none;fill-rule:evenodd;stroke:#000000;stroke-width:1;stroke-linecap:butt;stroke-linejoin:miter;stroke-miterlimit:4;stroke-dasharray:none;stroke-opacity:1"
       d="m 350.47926,665.75966 -100,173.20508"
       id="path4140-6"
       inkscape:connector-curvature="0" />
    <path
       inkscape:connector-curvature="0"
       id="path4247"
       d="m 300.5,652.3622 0,200"
       style="fill:none;fill-rule:evenodd;stroke:#000000;stroke-width:1;stroke-linecap:butt;stroke-linejoin:miter;stroke-miterlimit:4;stroke-dasharray:none;stroke-opacity:1" />
    <path
       style="fill:none;fill-rule:evenodd;stroke:#000000;stroke-width:1;stroke-linecap:butt;stroke-linejoin:miter;stroke-miterlimit:4;stroke-dasharray:none;stroke-opacity:1"
       d="m 300.5,652.3622 0,200"
       id="path4249"
       inkscape:connector-curvature="0" />
    <path
       inkscape:connector-curvature="0"
       id="path4251"
       d="m 300.5,652.3622 0,200"
       style="fill:none;fill-rule:evenodd;stroke:#000000;stroke-width:1;stroke-linecap:butt;stroke-linejoin:miter;stroke-miterlimit:4;stroke-dasharray:none;stroke-opacity:1" />
    <path
       style="fill:none;fill-rule:evenodd;stroke:#000000;stroke-width:1;stroke-linecap:butt;stroke-linejoin:miter;stroke-miterlimit:4;stroke-dasharray:none;stroke-opacity:1"
       d="m 213.89746,701.92919 173.20508,100"
       id="path4253"
       inkscape:connector-curvature="0" />
    <path
       inkscape:connector-curvature="0"
       id="path4255"
       d="m 250.5,665.75966 100,173.20508"
       style="fill:none;fill-rule:evenodd;stroke:#000000;stroke-width:1;stroke-linecap:butt;stroke-linejoin:miter;stroke-miterlimit:4;stroke-dasharray:none;stroke-opacity:1" />
    <path
       style="fill:none;fill-rule:evenodd;stroke:#000000;stroke-width:1;stroke-linecap:butt;stroke-linejoin:miter;stroke-miterlimit:4;stroke-dasharray:none;stroke-opacity:1"
       d="m 387.10254,702.42919 -173.20508,100"
       id="path4257"
       inkscape:connector-curvature="0" />
    <path
       style="fill:none;fill-rule:evenodd;stroke:#ff0000;stroke-width:1px;stroke-linecap:butt;stroke-linejoin:miter;stroke-opacity:1;marker-end:url(#Arrow1Lend)"
       d="m 299.34627,751.92861 64.53163,23.4876"
       id="path4261"
       inkscape:connector-curvature="0" />
    <path
       style="fill:none;fill-rule:evenodd;stroke:#000000;stroke-width:1;stroke-linecap:butt;stroke-linejoin:miter;stroke-miterlimit:4;stroke-dasharray:none;stroke-opacity:1"
       d="M 326.3819,655.76962 274.6181,848.95478"
       id="path4581"
       inkscape:connector-curvature="0" />
    <path
       inkscape:connector-curvature="0"
       id="path4583"
       d="M 371.21067,681.65152 229.78933,823.07288"
       style="fill:none;fill-rule:evenodd;stroke:#000000;stroke-width:1;stroke-linecap:butt;stroke-linejoin:miter;stroke-miterlimit:4;stroke-dasharray:none;stroke-opacity:1" />
    <path
       style="fill:none;fill-rule:evenodd;stroke:#000000;stroke-width:1;stroke-linecap:butt;stroke-linejoin:miter;stroke-miterlimit:4;stroke-dasharray:none;stroke-opacity:1"
       d="M 397.09257,726.48029 203.90743,778.24411"
       id="path4585"
       inkscape:connector-curvature="0" />
    <path
       inkscape:connector-curvature="0"
       id="path4587"
       d="m 203.90743,726.48029 193.18514,51.76382"
       style="fill:none;fill-rule:evenodd;stroke:#000000;stroke-width:1;stroke-linecap:butt;stroke-linejoin:miter;stroke-miterlimit:4;stroke-dasharray:none;stroke-opacity:1" />
    <path
       style="fill:none;fill-rule:evenodd;stroke:#000000;stroke-width:1;stroke-linecap:butt;stroke-linejoin:miter;stroke-miterlimit:4;stroke-dasharray:none;stroke-opacity:1"
       d="M 229.78933,681.65152 371.21067,823.07288"
       id="path4589"
       inkscape:connector-curvature="0" />
    <path
       inkscape:connector-curvature="0"
       id="path4591"
       d="m 274.6181,655.76962 51.7638,193.18516"
       style="fill:none;fill-rule:evenodd;stroke:#000000;stroke-width:1;stroke-linecap:butt;stroke-linejoin:miter;stroke-miterlimit:4;stroke-dasharray:none;stroke-opacity:1" />
    <path
       style="opacity:1;fill:#00ff00;fill-opacity:1;stroke:none;stroke-width:1;stroke-miterlimit:4;stroke-dasharray:none;stroke-opacity:1"
       d="m 348.54774,778.89912 c -20.46405,-11.82551 -37.14207,-21.56621 -37.06228,-21.646 0.0798,-0.0798 9.40156,3.21261 20.71505,7.31645 l 20.56997,7.46153 -2.70023,1.25 c -1.48514,0.6875 -2.70199,1.33742 -2.70413,1.44427 -0.005,0.23646 17.8815,1.50368 18.10264,1.28255 0.0862,-0.0861 -2.34452,-1.96798 -5.4015,-4.18184 -3.05696,-2.21387 -5.50913,-4.0742 -5.44925,-4.13409 0.12437,-0.12436 40.33984,10.59619 40.57976,10.81766 0.19117,0.17647 -1.04677,4.11799 -2.73248,8.70002 -1.65723,4.50462 -5.82794,13.2174 -6.31982,13.20233 -0.21471,-0.007 -17.13368,-9.68737 -37.59773,-21.51288 z"
       id="path4881"
       inkscape:connector-curvature="0" />
    <path
       style="opacity:1;fill:#00ff00;fill-opacity:1;stroke:none;stroke-width:1;stroke-miterlimit:4;stroke-dasharray:none;stroke-opacity:1"
       d="m 350.39795,765.04 c -24.75,-6.64534 -45.24107,-12.15171 -45.53571,-12.23638 -0.29464,-0.0847 20.74366,-0.17259 46.7518,-0.19537 l 47.28751,-0.0414 -0.23302,4.85867 c -0.31514,6.57092 -2.20253,18.68322 -3.03432,19.47271 -0.12994,0.12333 -20.48626,-5.21286 -45.23626,-11.8582 z"
       id="path4883"
       inkscape:connector-curvature="0" />
    <path
       style="opacity:1;fill:#00ff00;fill-opacity:1;stroke:none;stroke-width:1;stroke-miterlimit:4;stroke-dasharray:none;stroke-opacity:1"
       d="m 337.7018,788.4421 c -18.15917,-18.15998 -32.89933,-33.01814 -32.7559,-33.01814 0.21721,0 77.35976,44.39678 79.82619,45.94125 l 0.8027,0.50265 -1.82011,2.93876 c -2.87591,4.64348 -6.73742,9.6963 -11.0536,14.46374 l -1.98259,2.18987 -33.01669,-33.01813 z"
       id="path4885"
       inkscape:connector-curvature="0" />
    <path
       style="opacity:1;fill:#00ff00;fill-opacity:1;stroke:none;stroke-width:1;stroke-miterlimit:4;stroke-dasharray:none;stroke-opacity:1"
       d="m 335.39795,764.33582 c -9.625,-3.50841 -17.33928,-6.38802 -17.14285,-6.39914 0.19642,-0.0111 7.69211,1.94219 16.65707,4.34069 l 16.29992,4.36091 0.9492,1.93538 c 0.52206,1.06446 0.90138,1.98166 0.84293,2.03823 -0.0584,0.0566 -7.98127,-2.76766 -17.60627,-6.27607 z"
       id="path4887"
       inkscape:connector-curvature="0" />
  </g>
</svg>
